<svg version="1.1" xmlns="http://www.w3.org/2000/svg" xmlns:xlink="http://www.w3.org/1999/xlink" width="256.000000pt" height="256.000000pt" viewBox="0 0 256.000000 256.000000" role="presentation">

    <g transform="translate(0.000000,256.000000) scale(0.100000,-0.100000)" fill="rgb(66, 82, 110)" fill-rule="evenodd">
        <path d="M174 2541 c-60 -27 -119 -84 -148 -144 l-26 -51 0 -375 c0 -346 2 -379 19 -417 27 -60 84 -119 144 -148 l51 -26 375 0 c346 0 379 2 417 19 60 27 119 84 148 144 l26 51 0 376 0 376 -26 51 c-29 60 -88 117 -148 144 -38 17 -70 19 -416 19 -346 0 -378 -2 -416 -19z m729 -192 c71 -19 72 -23 72 -379 0 -356 -1 -360 -72 -379 -50 -14 -576 -14 -626 0 -71 19 -72 23 -72 379 0 352 1 360 68 379 45 13 583 13 630 0z" />
        <path d="M174 1161 c-60 -27 -119 -84 -148 -144 l-26 -51 0 -375 c0 -346 2 -379 19 -417 27 -60 84 -119 144 -148 l51 -26 375 0 c346 0 379 2 417 19 60 27 119 84 148 144 l26 51 0 376 0 376 -26 51 c-29 60 -88 117 -148 144 -38 17 -70 19 -416 19 -346 0 -378 -2 -416 -19z m729 -192 c71 -19 72 -23 72 -379 0 -356 -1 -360 -72 -379 -50 -14 -576 -14 -626 0 -71 19 -72 23 -72 379 0 352 1 360 68 379 45 13 583 13 630 0z" />
        <path d="M1575 1168 c-80 -29 -156 -107 -184 -188 -16 -48 -16 -733 1 -782 29 -84 110 -163 193 -188 28 -8 148 -10 405 -8 411 3 405 2 485 83 82 81 80 71 80 505 0 434 2 424 -80 505 -81 81 -72 80 -495 82 -250 1 -385 -2 -405 -9z m732 -208 c46 -30 48 -45 48 -370 0 -331 -2 -344 -53 -371 -36 -20 -627 -20 -663 -1 -52 28 -54 37 -57 337 -2 154 -1 299 3 322 6 45 42 89 78 96 12 3 157 4 322 3 244 -1 304 -4 322 -16z" />
    </g>
</svg>